Coordinates
version=1
nRows=19
nColumns=36
inDegrees=yes

Units are S.I. units (second, meters, Newtons, ...)
If the header above contains a line with 'inDegrees', this indicates whether rotational values are in degrees (yes) or radians (no).

endheader
time	pelvis_tilt	pelvis_list	pelvis_rotation	pelvis_tx	pelvis_ty	pelvis_tz	hip_flexion_r	hip_adduction_r	hip_rotation_r	knee_angle_r	knee_angle_r_beta	ankle_angle_r	subtalar_angle_r	mtp_angle_r	hip_flexion_l	hip_adduction_l	hip_rotation_l	knee_angle_l	knee_angle_l_beta	ankle_angle_l	subtalar_angle_l	mtp_angle_l	lumbar_extension	lumbar_bending	lumbar_rotation	arm_flex_r	arm_add_r	arm_rot_r	elbow_flex_r	pro_sup_r	arm_flex_l	arm_add_l	arm_rot_l	elbow_flex_l	pro_sup_l
      0.00000000	     -0.77909900	     -1.96358441	     -0.19642800	     -1.04023387	      1.30050167	     -0.08177626	     -0.93232735	      1.19438808	     -5.96280719	      2.65244897	      0.04629397	     -5.19569748	    -14.31478914	     -5.67394370	     -0.51945661	     -2.95411590	     -0.83967569	      6.90879810	      0.12058127	      3.43817977	     -6.36135088	     -5.67394370	    -11.23851931	      3.80253463	     -0.49114296	      2.24525150	    -13.46054091	     22.59279860	     30.43594085	     68.64035456	     -0.84403283	    -11.59117016	     23.54496426	     30.40779527	     62.62458062
      0.00416670	     -1.77196651	     -1.04441883	      0.03256676	     -1.04015471	      1.30106192	     -0.08207055	      0.21965349	      0.49432220	     -6.63964114	      2.80062191	      0.04888007	     -2.21170353	    -10.24405333	     -5.85916678	      0.48316627	     -1.64432106	     -1.51488745	      6.52030709	      0.11380083	      3.12252821	     -4.17758497	     -5.85916678	     -9.80189281	      2.61492387	     -0.48091125	      1.80346243	    -12.70684772	     21.61974517	     29.97661812	     68.32940198	     -1.12823270	    -11.31931400	     22.93477434	     30.23828320	     62.67864337
      0.00833330	     -2.15860508	     -0.38857782	     -0.16590243	     -1.03872232	      1.30085520	     -0.08136929	      0.36967897	     -0.01588807	     -8.21123391	      2.25890194	      0.03942528	     -1.45279788	     -8.65542595	     -6.01524117	      0.58641585	     -1.01294561	     -2.69383146	      6.13418959	      0.10706181	      2.95444696	     -3.23132117	     -6.01524117	     -9.37152649	      1.58138704	     -0.29034105	      1.35825516	    -12.31894550	     20.78132945	     30.51558588	     67.92349467	     -1.32146480	    -11.96706488	     22.98464748	     30.86629515	     62.96203713
      0.01250000	     -1.65149834	     -0.10514385	     -0.14438930	     -1.03973554	      1.30175860	     -0.08123141	     -0.30858333	     -0.32697363	     -9.30924886	      1.98991633	      0.03473059	     -0.53062559	     -6.73140314	     -6.28278132	     -0.36723858	     -0.65488952	     -3.30404237	      5.44174061	      0.09497629	      2.90930735	     -2.87359743	     -6.28278132	    -10.10853632	      1.11525758	     -0.17133160	      1.11755795	    -12.16486450	     20.06003113	     31.04606270	     67.13335658	     -1.11837054	    -12.37083534	     23.07166372	     31.21635832	     63.08852399
      0.01666670	     -1.42178485	      0.01373783	     -0.15194618	     -1.03998117	      1.30007535	     -0.08107286	     -0.66882994	     -0.41676299	     -9.59290587	      1.75122341	      0.03056461	     -0.08316291	     -6.27590239	     -6.75714503	     -0.88934224	     -0.44894258	     -3.40651882	      4.82815979	      0.08426729	      2.96323644	     -2.60567613	     -6.75714503	    -10.58275049	      0.96883919	      0.47093972	      0.32563493	    -12.28681708	     18.54168294	     32.49470483	     68.27055791	     -0.49193261	    -12.76656849	     24.79838561	     31.45388982	     66.01527097
      0.02083330	     -1.11744168	      0.10850011	     -0.14735490	     -1.04038296	      1.30146188	     -0.08100927	     -1.08773350	     -0.49021003	     -9.88701552	      1.61680532	      0.02821858	      0.30728076	     -5.68098706	     -7.05959969	     -1.33673312	     -0.30750328	     -3.46092409	      4.45841886	      0.07781409	      3.00295942	     -2.37455304	     -7.05959969	    -11.14526214	      0.88151204	      0.51895288	      0.22744323	    -12.46043682	     18.73862850	     33.45204683	     66.67573096	     -0.48924795	    -12.87273391	     24.39125553	     32.19775092	     64.83969889
      0.02500000	     -1.03280010	      0.15030724	     -0.08447897	     -1.04008696	      1.30386826	     -0.08157751	     -1.26290168	     -0.52131399	    -10.07097589	      1.53312947	      0.02675816	      0.30650014	     -5.36728175	     -7.18171099	     -1.47405224	     -0.24482249	     -3.48179038	      4.27549176	      0.07462141	      2.85071131	     -2.31135814	     -7.18171099	    -11.33668261	      0.92051935	      0.55411141	      0.31621383	    -12.71733958	     19.54449683	     33.67556703	     67.50968092	     -0.24177852	    -12.88586627	     24.85833289	     32.07795619	     65.38394521
      0.02916670	     -0.90051493	      0.18453564	     -0.00118471	     -1.03942223	      1.30296740	     -0.08109173	     -1.53731925	     -0.50968477	    -10.14080076	      1.39099722	      0.02427748	      0.15506079	     -5.44532546	     -7.22517977	     -1.67435615	     -0.21089340	     -3.56068250	      4.13492095	      0.07216798	      2.70034789	     -2.22917150	     -7.22517977	    -11.59412967	      0.90140223	      0.58122023	      0.23702390	    -12.72946086	     19.39338909	     34.01107565	     67.07476990	     -0.15820149	    -12.85146045	     24.52211232	     32.31225451	     65.01094087
      0.03333330	     -0.67210366	      0.18977958	      0.13079297	     -1.03850989	      1.30295449	     -0.08044082	     -1.91146534	     -0.48687915	    -10.53732850	      1.26645930	      0.02210388	      0.17831424	     -4.89946107	     -7.31779551	     -1.98024272	     -0.22868645	     -3.54689110	      4.02039912	      0.07016920	      2.45642126	     -2.22627127	     -7.31779551	    -11.91127067	      0.95979854	      0.53905512	      0.20733387	    -13.00810750	     19.94666190	     34.43251743	     67.07637957	     -0.12268552	    -12.90346494	     24.69203880	     32.60886332	     64.98700682
      0.03750000	     -0.60667499	      0.11415591	      0.15925458	     -1.03925133	      1.30196280	     -0.07967661	     -2.05842421	     -0.34680173	    -10.47749224	      1.09070068	      0.01903632	      0.19729977	     -4.87250682	     -7.36652271	     -2.06514701	     -0.38027981	     -3.70749480	      3.99519044	      0.06972923	      2.68046485	     -1.69253294	     -7.36652271	    -12.08753452	      1.01514762	      0.58017563	      0.13635756	    -12.92866692	     19.80105225	     34.63963106	     66.14109402	     -0.09062230	    -12.92761242	     24.27043494	     32.78456216	     64.30975676
      0.04166670	     -0.49597069	      0.11289775	      0.27888884	     -1.03789720	      1.30341626	     -0.08041299	     -2.32055347	     -0.28904706	    -10.78223253	      0.99184580	      0.01731097	      0.31637245	     -4.41232692	     -7.41852513	     -2.23757185	     -0.40823760	     -3.63315272	      3.89598071	      0.06799769	      2.32937608	     -1.83040428	     -7.41852513	    -12.20391867	      1.05232304	      0.50152513	      0.16636169	    -13.12869954	     20.62198198	     34.72177173	     66.11696200	     -0.05921930	    -13.06677478	     24.80509995	     32.98192635	     64.47610268
      0.04583330	     -0.47416321	      0.15150357	      0.28293974	     -1.03958180	      1.30213308	     -0.08053422	     -2.40323684	     -0.30419331	    -10.94357785	      0.96525747	      0.01684692	      0.43816390	     -4.23491718	     -7.44686253	     -2.24270205	     -0.39019605	     -3.70895245	      3.93191533	      0.06862487	      2.20055857	     -1.93583275	     -7.44686253	    -12.23382180	      1.00043693	      0.52665397	      0.20292731	    -13.17736450	     21.04276731	     34.65591815	     66.02610409	     -0.00546784	    -13.16591587	     24.96471005	     33.06474757	     64.63797379
      0.05000000	     -0.47210218	      0.17726292	      0.30039697	     -1.03953424	      1.30336195	     -0.08039704	     -2.45018608	     -0.31964361	    -10.97453914	      0.85482038	      0.01491943	      0.38730938	     -4.34758614	     -7.47815448	     -2.23409049	     -0.38349282	     -3.84724664	      3.93334318	      0.06864979	      2.21096876	     -1.77112839	     -7.47815448	    -12.33410218	      0.99629501	      0.51018978	      0.26614195	    -13.11474136	     20.57010466	     34.57410473	     69.55211680	      0.07965586	    -13.16114715	     24.51877342	     32.96868566	     68.39905943
      0.05416670	     -0.40622978	      0.21499552	      0.33557674	     -1.03869305	      1.30747709	     -0.07961779	     -2.61026226	     -0.32161515	    -11.36970175	      0.76869032	      0.01341618	      0.45341774	     -3.92032477	     -7.49056715	     -2.36248962	     -0.36912932	     -3.97612337	      3.80918158	      0.06648276	      2.03396004	     -1.52551110	     -7.49056715	    -12.54022425	      0.96829116	      0.53294218	      0.30069010	    -13.16811521	     21.08099910	     34.73748889	     66.45900813	      0.14922743	    -13.21676605	     24.76605830	     33.35418147	     65.78935005
      0.05833330	     -0.46646650	      0.25151401	      0.33364904	     -1.03806497	      1.30494024	     -0.07891276	     -2.60136826	     -0.30701335	    -11.47607679	      0.71761939	      0.01252482	      0.50003287	     -3.92219043	     -7.49557793	     -2.32428592	     -0.36057033	     -4.03783628	      3.78909923	      0.06613226	      1.92142401	     -1.56972781	     -7.49557793	    -12.43710592	      0.89662050	      0.54645241	      0.45702921	    -13.23650771	     22.02684108	     34.40378659	     66.70387581	      0.30584511	    -13.41103124	     25.65024815	     33.22867192	     66.45381936
      0.06250000	     -0.39853570	      0.27623296	      0.33364414	     -1.03920592	      1.30514095	     -0.07993984	     -2.69652004	     -0.32706731	    -11.75033419	      0.67518665	      0.01178423	      0.79442892	     -3.50336771	     -7.49790674	     -2.44315570	     -0.32848541	     -4.16000971	      3.63946195	      0.06352059	      1.92152328	     -1.34543088	     -7.49790674	    -12.67823747	      0.90318539	      0.60646852	      0.42174235	    -13.27113818	     21.79027397	     34.69962986	     65.19624171	      0.28920812	    -13.38040024	     25.29650910	     33.70390190	     65.12280080
      0.06666670	     -0.42076950	      0.26068575	      0.39426989	     -1.03940441	      1.30114963	     -0.07953061	     -2.67678698	     -0.28591542	    -11.79825798	      0.63188221	      0.01102842	      0.82232728	     -3.65530551	     -7.49809266	     -2.36056815	     -0.35861075	     -4.10004249	      3.70162812	      0.06460560	      2.06682686	     -1.27221935	     -7.49809266	    -12.66445293	      0.93118410	      0.59535247	      0.52023054	    -13.36823380	     22.29679216	     34.56538463	     66.21367005	      0.41083013	    -13.51042505	     25.83111274	     33.70732121	     66.33956957
      0.07083330	     -0.39659088	      0.22805682	      0.42270854	     -1.03800927	      1.30213440	     -0.07851841	     -2.74188990	     -0.22634737	    -12.07544515	      0.62579670	      0.01092221	      1.01621698	     -3.28243452	     -7.49894121	     -2.40892371	     -0.41240107	     -4.19679710	      3.64569043	      0.06362930	      2.25236119	     -0.88032866	     -7.49894121	    -12.70453480	      0.95779806	      0.59013952	      0.47179352	    -13.29867569	     21.99820442	     34.65746077	     64.84924310	      0.31376022	    -13.45021207	     25.39131394	     33.88172100	     65.01845884
      0.07500000	     -0.45630752	      0.22377022	      0.39059376	     -1.03879966	      1.30358309	     -0.07896279	     -2.67960194	     -0.19992210	    -11.91369867	      0.60251332	      0.01051584	      0.81652966	     -3.67421540	     -7.49937860	     -2.34735508	     -0.43546789	     -4.29059822	      3.61391691	      0.06307475	      2.21911091	     -0.70396605	     -7.49937860	    -12.63091499	      0.93148853	      0.67648865	      0.53519517	    -13.45721683	     22.82624331	     34.55607771	     65.97142848	      0.41681943	    -13.61243597	     26.00162036	     33.91383197	     66.37561213
